<?xml version="1.0" standalone="yes"?>

<svg version="1.1" viewBox="0.0 0.0 548.3175853018373 332.08923884514434" fill="none" stroke="none" stroke-linecap="square" stroke-miterlimit="10" xmlns="http://www.w3.org/2000/svg" xmlns:xlink="http://www.w3.org/1999/xlink"><clipPath id="p.0"><path d="m0 0l548.31757 0l0 332.08923l-548.31757 0l0 -332.08923z" clip-rule="nonzero"></path></clipPath><g clip-path="url(#p.0)"><path fill="#000000" fill-opacity="0.0" d="m0 0l548.31757 0l0 332.08923l-548.31757 0z" fill-rule="evenodd"></path><path fill="#ffffff" d="m198.90617 110.69251l89.658035 -51.848503l-89.658035 -51.848503z" fill-rule="evenodd"></path><path stroke="#000000" stroke-width="3.0" stroke-linejoin="round" stroke-linecap="butt" d="m198.90617 110.69251l89.658035 -51.848503l-89.658035 -51.848503z" fill-rule="evenodd"></path><path fill="#000000" fill-opacity="0.0" d="m289.84045 6.9955072l0 103.69701" fill-rule="evenodd"></path><path stroke="#000000" stroke-width="3.0" stroke-linejoin="round" stroke-linecap="butt" d="m289.84045 6.9955072l0 103.69701" fill-rule="evenodd"></path><path fill="#000000" fill-opacity="0.0" d="m289.84055 58.841385l69.66928 0" fill-rule="evenodd"></path><path stroke="#000000" stroke-width="3.0" stroke-linejoin="round" stroke-linecap="butt" d="m289.84055 58.841385l69.66928 0" fill-rule="evenodd"></path><path fill="#000000" fill-opacity="0.0" d="m129.24147 58.843098l69.6693 0" fill-rule="evenodd"></path><path stroke="#000000" stroke-width="3.0" stroke-linejoin="round" stroke-linecap="butt" d="m129.24147 58.843098l69.6693 0" fill-rule="evenodd"></path><defs><linearGradient id="p.1" gradientUnits="userSpaceOnUse" gradientTransform="matrix(0.0 13.088450547362864 -13.088450547362864 0.0 0.0 0.0)" spreadMethod="pad" x1="10.227405597328133" y1="-34.406157102521846" x2="10.227358597304862" y2="-21.317706555243372"><stop offset="0.0" stop-color="#fdecdb"></stop><stop offset="1.0" stop-color="#f0a963"></stop></linearGradient></defs><path fill="url(#p.1)" d="m450.32285 133.86089l0 131.14961l-171.3071 0l0 -131.14961z" fill-rule="evenodd"></path><path stroke="#000000" stroke-width="1.0" stroke-linejoin="round" stroke-linecap="butt" d="m450.32285 133.86089l0 131.14961l-171.3071 0l0 -131.14961z" fill-rule="evenodd"></path><defs><linearGradient id="p.2" gradientUnits="userSpaceOnUse" gradientTransform="matrix(0.0 -13.088451330699423 13.088451330699423 0.0 0.0 0.0)" spreadMethod="pad" x1="-20.24765894694299" y1="5.784350484538359" x2="-20.247707513630797" y2="18.872801815147675"><stop offset="0.0" stop-color="#dfe9fb"></stop><stop offset="1.0" stop-color="#6e9be7"></stop></linearGradient></defs><path fill="url(#p.2)" d="m75.708664 265.0105l0 -131.14961l171.30708 0l0 131.14961z" fill-rule="evenodd"></path><path stroke="#000000" stroke-width="1.0" stroke-linejoin="round" stroke-linecap="butt" d="m75.708664 265.0105l0 -131.14961l171.30708 0l0 131.14961z" fill-rule="evenodd"></path><path fill="#ff9900" d="m303.16403 167.66405l0 0c0 -9.610626 7.7909546 -17.40158 17.40158 -17.40158l0 0c4.6151733 0 9.041351 1.833374 12.304779 5.0968018c3.2634277 3.2634277 5.0968018 7.6895905 5.0968018 12.304779l0 0c0 9.610626 -7.7909546 17.401566 -17.40158 17.401566l0 0c-9.610626 0 -17.40158 -7.7909393 -17.40158 -17.401566z" fill-rule="evenodd"></path><path stroke="#000000" stroke-width="1.0" stroke-linejoin="round" stroke-linecap="butt" d="m303.16403 167.66405l0 0c0 -9.610626 7.7909546 -17.40158 17.40158 -17.40158l0 0c4.6151733 0 9.041351 1.833374 12.304779 5.0968018c3.2634277 3.2634277 5.0968018 7.6895905 5.0968018 12.304779l0 0c0 9.610626 -7.7909546 17.401566 -17.40158 17.401566l0 0c-9.610626 0 -17.40158 -7.7909393 -17.40158 -17.401566z" fill-rule="evenodd"></path><path fill="#000000" d="m325.26083 171.41217l1.71875 0.21875q-0.40625 1.5 -1.515625 2.34375q-1.09375 0.828125 -2.8125 0.828125q-2.15625 0 -3.421875 -1.328125q-1.265625 -1.328125 -1.265625 -3.734375q0 -2.484375 1.265625 -3.859375q1.28125 -1.375 3.328125 -1.375q1.984375 0 3.234375 1.34375q1.25 1.34375 1.25 3.796875q0 0.140625 -0.015625 0.4375l-7.34375 0q0.09375 1.625 0.921875 2.484375q0.828125 0.859375 2.0625 0.859375q0.90625 0 1.546875 -0.46875q0.65625 -0.484375 1.046875 -1.546875zm-5.484375 -2.703125l5.5 0q-0.109375 -1.234375 -0.625 -1.859375q-0.796875 -0.96875 -2.078125 -0.96875q-1.140625 0 -1.9375 0.78125q-0.78125 0.765625 -0.859375 2.046875z" fill-rule="nonzero"></path><path fill="#ff9900" d="m289.78085 223.86876l0 0c0 -9.610611 7.790924 -17.401566 17.40155 -17.401566l0 0c4.615204 0 9.041351 1.833374 12.304779 5.0968018c3.2634277 3.2634277 5.0968018 7.6895905 5.0968018 12.304764l0 0c0 9.610626 -7.7909546 17.40158 -17.40158 17.40158l0 0c-9.610626 0 -17.40155 -7.7909546 -17.40155 -17.40158z" fill-rule="evenodd"></path><path stroke="#000000" stroke-width="1.0" stroke-linejoin="round" stroke-linecap="butt" d="m289.78085 223.86876l0 0c0 -9.610611 7.790924 -17.401566 17.40155 -17.401566l0 0c4.615204 0 9.041351 1.833374 12.304779 5.0968018c3.2634277 3.2634277 5.0968018 7.6895905 5.0968018 12.304764l0 0c0 9.610626 -7.7909546 17.40158 -17.40158 17.40158l0 0c-9.610626 0 -17.40155 -7.7909546 -17.40155 -17.40158z" fill-rule="evenodd"></path><path fill="#000000" d="m311.87766 227.61688l1.71875 0.21875q-0.40625 1.5 -1.515625 2.34375q-1.09375 0.828125 -2.8125 0.828125q-2.15625 0 -3.421875 -1.328125q-1.265625 -1.328125 -1.265625 -3.734375q0 -2.484375 1.265625 -3.859375q1.28125 -1.375 3.328125 -1.375q1.984375 0 3.234375 1.34375q1.25 1.34375 1.25 3.796875q0 0.140625 -0.015625 0.4375l-7.34375 0q0.09375 1.625 0.921875 2.484375q0.828125 0.859375 2.0625 0.859375q0.90625 0 1.546875 -0.46875q0.65625 -0.484375 1.046875 -1.546875zm-5.484375 -2.703125l5.5 0q-0.109375 -1.234375 -0.625 -1.859375q-0.796875 -0.96875 -2.078125 -0.96875q-1.140625 0 -1.9375 0.78125q-0.78125 0.765625 -0.859375 2.046875z" fill-rule="nonzero"></path><path fill="#ff9900" d="m347.26642 238.58792l0 0c0 -9.610626 7.790924 -17.401566 17.40155 -17.401566l0 0c4.615204 0 9.041351 1.833374 12.304779 5.0968018c3.2634277 3.2634277 5.0968018 7.6895905 5.0968018 12.304764l0 0c0 9.610626 -7.7909546 17.40158 -17.40158 17.40158l0 0c-9.610626 0 -17.40155 -7.7909546 -17.40155 -17.40158z" fill-rule="evenodd"></path><path stroke="#000000" stroke-width="1.0" stroke-linejoin="round" stroke-linecap="butt" d="m347.26642 238.58792l0 0c0 -9.610626 7.790924 -17.401566 17.40155 -17.401566l0 0c4.615204 0 9.041351 1.833374 12.304779 5.0968018c3.2634277 3.2634277 5.0968018 7.6895905 5.0968018 12.304764l0 0c0 9.610626 -7.7909546 17.40158 -17.40158 17.40158l0 0c-9.610626 0 -17.40155 -7.7909546 -17.40155 -17.40158z" fill-rule="evenodd"></path><path fill="#000000" d="m369.36322 242.33604l1.71875 0.21875q-0.40625 1.5 -1.515625 2.34375q-1.09375 0.828125 -2.8125 0.828125q-2.15625 0 -3.421875 -1.328125q-1.265625 -1.328125 -1.265625 -3.734375q0 -2.484375 1.265625 -3.859375q1.28125 -1.375 3.328125 -1.375q1.984375 0 3.234375 1.34375q1.25 1.34375 1.25 3.796875q0 0.140625 -0.015625 0.4375l-7.34375 0q0.09375 1.625 0.921875 2.484375q0.828125 0.859375 2.0625 0.859375q0.90625 0 1.546875 -0.46875q0.65625 -0.484375 1.046875 -1.546875zm-5.484375 -2.703125l5.5 0q-0.109375 -1.234375 -0.625 -1.859375q-0.796875 -0.96875 -2.078125 -0.96875q-1.140625 0 -1.9375 0.78125q-0.78125 0.765625 -0.859375 2.046875z" fill-rule="nonzero"></path><path fill="#ff9900" d="m375.50525 160.28346l0 0c0 -9.610626 7.7909546 -17.401566 17.40158 -17.401566l0 0c4.6151733 0 9.041351 1.833374 12.304779 5.0968018c3.2634277 3.2634277 5.0968018 7.689575 5.0968018 12.304764l0 0c0 9.610626 -7.7909546 17.40158 -17.40158 17.40158l0 0c-9.610626 0 -17.40158 -7.7909546 -17.40158 -17.40158z" fill-rule="evenodd"></path><path stroke="#000000" stroke-width="1.0" stroke-linejoin="round" stroke-linecap="butt" d="m375.50525 160.28346l0 0c0 -9.610626 7.7909546 -17.401566 17.40158 -17.401566l0 0c4.6151733 0 9.041351 1.833374 12.304779 5.0968018c3.2634277 3.2634277 5.0968018 7.689575 5.0968018 12.304764l0 0c0 9.610626 -7.7909546 17.40158 -17.40158 17.40158l0 0c-9.610626 0 -17.40158 -7.7909546 -17.40158 -17.40158z" fill-rule="evenodd"></path><path fill="#000000" d="m397.60205 164.03159l1.71875 0.21875q-0.40625 1.5 -1.515625 2.34375q-1.09375 0.828125 -2.8125 0.828125q-2.15625 0 -3.421875 -1.328125q-1.265625 -1.328125 -1.265625 -3.734375q0 -2.484375 1.265625 -3.859375q1.28125 -1.375 3.328125 -1.375q1.984375 0 3.234375 1.34375q1.25 1.34375 1.25 3.796875q0 0.140625 -0.015625 0.4375l-7.34375 0q0.09375 1.625 0.921875 2.484375q0.828125 0.859375 2.0625 0.859375q0.90625 0 1.546875 -0.46875q0.65625 -0.484375 1.046875 -1.546875zm-5.484375 -2.703125l5.5 0q-0.109375 -1.234375 -0.625 -1.859375q-0.796875 -0.96875 -2.078125 -0.96875q-1.140625 0 -1.9375 0.78125q-0.78125 0.765625 -0.859375 2.046875z" fill-rule="nonzero"></path><path fill="#ff9900" d="m347.26642 199.4357l0 0c0 -9.610626 7.790924 -17.40158 17.40155 -17.40158l0 0c4.615204 0 9.041351 1.833374 12.304779 5.0968018c3.2634277 3.2634277 5.0968018 7.6895905 5.0968018 12.304779l0 0c0 9.610626 -7.7909546 17.401566 -17.40158 17.401566l0 0c-9.610626 0 -17.40155 -7.7909393 -17.40155 -17.401566z" fill-rule="evenodd"></path><path stroke="#000000" stroke-width="1.0" stroke-linejoin="round" stroke-linecap="butt" d="m347.26642 199.4357l0 0c0 -9.610626 7.790924 -17.40158 17.40155 -17.40158l0 0c4.615204 0 9.041351 1.833374 12.304779 5.0968018c3.2634277 3.2634277 5.0968018 7.6895905 5.0968018 12.304779l0 0c0 9.610626 -7.7909546 17.401566 -17.40158 17.401566l0 0c-9.610626 0 -17.40155 -7.7909393 -17.40155 -17.401566z" fill-rule="evenodd"></path><path fill="#000000" d="m369.36322 203.18382l1.71875 0.21875q-0.40625 1.5 -1.515625 2.34375q-1.09375 0.828125 -2.8125 0.828125q-2.15625 0 -3.421875 -1.328125q-1.265625 -1.328125 -1.265625 -3.734375q0 -2.484375 1.265625 -3.859375q1.28125 -1.375 3.328125 -1.375q1.984375 0 3.234375 1.34375q1.25 1.34375 1.25 3.796875q0 0.140625 -0.015625 0.4375l-7.34375 0q0.09375 1.625 0.921875 2.484375q0.828125 0.859375 2.0625 0.859375q0.90625 0 1.546875 -0.46875q0.65625 -0.484375 1.046875 -1.546875zm-5.484375 -2.703125l5.5 0q-0.109375 -1.234375 -0.625 -1.859375q-0.796875 -0.96875 -2.078125 -0.96875q-1.140625 0 -1.9375 0.78125q-0.78125 0.765625 -0.859375 2.046875z" fill-rule="nonzero"></path><path fill="#ff9900" d="m404.75198 238.58661l0 0c0 -9.610626 7.790924 -17.401566 17.40155 -17.401566l0 0c4.615204 0 9.041351 1.833374 12.304779 5.0968018c3.2634277 3.2634277 5.0968018 7.6895905 5.0968018 12.304764l0 0c0 9.610626 -7.7909546 17.40158 -17.40158 17.40158l0 0c-9.610626 0 -17.40155 -7.7909546 -17.40155 -17.40158z" fill-rule="evenodd"></path><path stroke="#000000" stroke-width="1.0" stroke-linejoin="round" stroke-linecap="butt" d="m404.75198 238.58661l0 0c0 -9.610626 7.790924 -17.401566 17.40155 -17.401566l0 0c4.615204 0 9.041351 1.833374 12.304779 5.0968018c3.2634277 3.2634277 5.0968018 7.6895905 5.0968018 12.304764l0 0c0 9.610626 -7.7909546 17.40158 -17.40158 17.40158l0 0c-9.610626 0 -17.40155 -7.7909546 -17.40155 -17.40158z" fill-rule="evenodd"></path><path fill="#000000" d="m426.8488 242.33473l1.71875 0.21875q-0.40625 1.5 -1.515625 2.34375q-1.09375 0.828125 -2.8125 0.828125q-2.15625 0 -3.421875 -1.328125q-1.265625 -1.328125 -1.265625 -3.734375q0 -2.484375 1.265625 -3.859375q1.28125 -1.375 3.328125 -1.375q1.984375 0 3.234375 1.34375q1.25 1.34375 1.25 3.796875q0 0.140625 -0.015625 0.4375l-7.34375 0q0.09375 1.625 0.921875 2.484375q0.828125 0.859375 2.0625 0.859375q0.90625 0 1.546875 -0.46875q0.65625 -0.484375 1.046875 -1.546875zm-5.484375 -2.703125l5.5 0q-0.109375 -1.234375 -0.625 -1.859375q-0.796875 -0.96875 -2.078125 -0.96875q-1.140625 0 -1.9375 0.78125q-0.78125 0.765625 -0.859375 2.046875z" fill-rule="nonzero"></path><path fill="#ff9900" d="m396.75198 197.0643l0 0c0 -9.610626 7.790924 -17.401566 17.40155 -17.401566l0 0c4.615204 0 9.041351 1.833374 12.304779 5.0968018c3.2634277 3.2634277 5.0968018 7.6895905 5.0968018 12.304764l0 0c0 9.610626 -7.7909546 17.40158 -17.40158 17.40158l0 0c-9.610626 0 -17.40155 -7.7909546 -17.40155 -17.40158z" fill-rule="evenodd"></path><path stroke="#000000" stroke-width="1.0" stroke-linejoin="round" stroke-linecap="butt" d="m396.75198 197.0643l0 0c0 -9.610626 7.790924 -17.401566 17.40155 -17.401566l0 0c4.615204 0 9.041351 1.833374 12.304779 5.0968018c3.2634277 3.2634277 5.0968018 7.6895905 5.0968018 12.304764l0 0c0 9.610626 -7.7909546 17.40158 -17.40158 17.40158l0 0c-9.610626 0 -17.40155 -7.7909546 -17.40155 -17.40158z" fill-rule="evenodd"></path><path fill="#000000" d="m418.8488 200.81242l1.71875 0.21875q-0.40625 1.5 -1.515625 2.34375q-1.09375 0.828125 -2.8125 0.828125q-2.15625 0 -3.421875 -1.328125q-1.265625 -1.328125 -1.265625 -3.734375q0 -2.484375 1.265625 -3.859375q1.28125 -1.375 3.328125 -1.375q1.984375 0 3.234375 1.34375q1.25 1.34375 1.25 3.796875q0 0.140625 -0.015625 0.4375l-7.34375 0q0.09375 1.625 0.921875 2.484375q0.828125 0.859375 2.0625 0.859375q0.90625 0 1.546875 -0.46875q0.65625 -0.484375 1.046875 -1.546875zm-5.484375 -2.703125l5.5 0q-0.109375 -1.234375 -0.625 -1.859375q-0.796875 -0.96875 -2.078125 -0.96875q-1.140625 0 -1.9375 0.78125q-0.78125 0.765625 -0.859375 2.046875z" fill-rule="nonzero"></path><path fill="#ffffff" d="m198.82283 160.28346l0 0c0 -9.610626 7.7909546 -17.401566 17.40158 -17.401566l0 0c4.6151886 0 9.041336 1.833374 12.304764 5.0968018c3.2634277 3.2634277 5.096817 7.689575 5.096817 12.304764l0 0c0 9.610626 -7.7909546 17.40158 -17.40158 17.40158l0 0c-9.610626 0 -17.40158 -7.7909546 -17.40158 -17.40158z" fill-rule="evenodd"></path><path stroke="#000000" stroke-width="1.0" stroke-linejoin="round" stroke-linecap="butt" stroke-dasharray="1.0,3.0" d="m198.82283 160.28346l0 0c0 -9.610626 7.7909546 -17.401566 17.40158 -17.401566l0 0c4.6151886 0 9.041336 1.833374 12.304764 5.0968018c3.2634277 3.2634277 5.096817 7.689575 5.096817 12.304764l0 0c0 9.610626 -7.7909546 17.40158 -17.40158 17.40158l0 0c-9.610626 0 -17.40158 -7.7909546 -17.40158 -17.40158z" fill-rule="evenodd"></path><path fill="#ffffff" d="m130.78215 170.3412l0 0c0 -9.610626 7.7909546 -17.401566 17.40158 -17.401566l0 0c4.6151733 0 9.041336 1.833374 12.304764 5.0968018c3.2634277 3.2634277 5.0968018 7.6895905 5.0968018 12.304764l0 0c0 9.610626 -7.7909393 17.40158 -17.401566 17.40158l0 0c-9.610626 0 -17.40158 -7.7909546 -17.40158 -17.40158z" fill-rule="evenodd"></path><path stroke="#000000" stroke-width="1.0" stroke-linejoin="round" stroke-linecap="butt" stroke-dasharray="1.0,3.0" d="m130.78215 170.3412l0 0c0 -9.610626 7.7909546 -17.401566 17.40158 -17.401566l0 0c4.6151733 0 9.041336 1.833374 12.304764 5.0968018c3.2634277 3.2634277 5.0968018 7.6895905 5.0968018 12.304764l0 0c0 9.610626 -7.7909393 17.40158 -17.401566 17.40158l0 0c-9.610626 0 -17.40158 -7.7909546 -17.40158 -17.40158z" fill-rule="evenodd"></path><path fill="#ffffff" d="m174.10498 197.06561l0 0c0 -9.610626 7.7909546 -17.401566 17.40158 -17.401566l0 0c4.6151886 0 9.041336 1.833374 12.304779 5.0968018c3.2634277 3.2634277 5.0968018 7.6895905 5.0968018 12.304764l0 0c0 9.610626 -7.7909546 17.40158 -17.40158 17.40158l0 0c-9.610626 0 -17.40158 -7.7909546 -17.40158 -17.40158z" fill-rule="evenodd"></path><path stroke="#000000" stroke-width="1.0" stroke-linejoin="round" stroke-linecap="butt" stroke-dasharray="1.0,3.0" d="m174.10498 197.06561l0 0c0 -9.610626 7.7909546 -17.401566 17.40158 -17.401566l0 0c4.6151886 0 9.041336 1.833374 12.304779 5.0968018c3.2634277 3.2634277 5.0968018 7.6895905 5.0968018 12.304764l0 0c0 9.610626 -7.7909546 17.40158 -17.40158 17.40158l0 0c-9.610626 0 -17.40158 -7.7909546 -17.40158 -17.40158z" fill-rule="evenodd"></path><path fill="#ffffff" d="m203.67323 238.58792l0 0c0 -9.610626 7.7909393 -17.401566 17.401566 -17.401566l0 0c4.6151886 0 9.041351 1.833374 12.304779 5.0968018c3.2634277 3.2634277 5.0968018 7.6895905 5.0968018 12.304764l0 0c0 9.610626 -7.7909546 17.40158 -17.40158 17.40158l0 0c-9.610626 0 -17.401566 -7.7909546 -17.401566 -17.40158z" fill-rule="evenodd"></path><path stroke="#000000" stroke-width="1.0" stroke-linejoin="round" stroke-linecap="butt" stroke-dasharray="1.0,3.0" d="m203.67323 238.58792l0 0c0 -9.610626 7.7909393 -17.401566 17.401566 -17.401566l0 0c4.6151886 0 9.041351 1.833374 12.304779 5.0968018c3.2634277 3.2634277 5.0968018 7.6895905 5.0968018 12.304764l0 0c0 9.610626 -7.7909546 17.40158 -17.40158 17.40158l0 0c-9.610626 0 -17.401566 -7.7909546 -17.401566 -17.40158z" fill-rule="evenodd"></path><path fill="#ffffff" d="m142.80971 238.58792l0 0c0 -9.610626 7.7909546 -17.401566 17.40158 -17.401566l0 0c4.6151886 0 9.041336 1.833374 12.304764 5.0968018c3.2634277 3.2634277 5.0968018 7.6895905 5.0968018 12.304764l0 0c0 9.610626 -7.7909393 17.40158 -17.401566 17.40158l0 0c-9.610626 0 -17.40158 -7.7909546 -17.40158 -17.40158z" fill-rule="evenodd"></path><path stroke="#000000" stroke-width="1.0" stroke-linejoin="round" stroke-linecap="butt" stroke-dasharray="1.0,3.0" d="m142.80971 238.58792l0 0c0 -9.610626 7.7909546 -17.401566 17.40158 -17.401566l0 0c4.6151886 0 9.041336 1.833374 12.304764 5.0968018c3.2634277 3.2634277 5.0968018 7.6895905 5.0968018 12.304764l0 0c0 9.610626 -7.7909393 17.40158 -17.401566 17.40158l0 0c-9.610626 0 -17.40158 -7.7909546 -17.40158 -17.40158z" fill-rule="evenodd"></path><path fill="#ffffff" d="m90.426506 223.86876l0 0c0 -9.610611 7.7909546 -17.401566 17.40158 -17.401566l0 0c4.615181 0 9.041344 1.833374 12.304771 5.0968018c3.2634277 3.2634277 5.0968018 7.6895905 5.0968018 12.304764l0 0c0 9.610626 -7.7909546 17.40158 -17.401573 17.40158l0 0c-9.610626 0 -17.40158 -7.7909546 -17.40158 -17.40158z" fill-rule="evenodd"></path><path stroke="#000000" stroke-width="1.0" stroke-linejoin="round" stroke-linecap="butt" stroke-dasharray="1.0,3.0" d="m90.426506 223.86876l0 0c0 -9.610611 7.7909546 -17.401566 17.40158 -17.401566l0 0c4.615181 0 9.041344 1.833374 12.304771 5.0968018c3.2634277 3.2634277 5.0968018 7.6895905 5.0968018 12.304764l0 0c0 9.610626 -7.7909546 17.40158 -17.401573 17.40158l0 0c-9.610626 0 -17.40158 -7.7909546 -17.40158 -17.40158z" fill-rule="evenodd"></path><path fill="#ffffff" d="m83.98819 167.66405l0 0c0 -9.610626 7.790947 -17.40158 17.401573 -17.40158l0 0c4.6151886 0 9.041344 1.833374 12.304771 5.0968018c3.2634277 3.2634277 5.0968018 7.6895905 5.0968018 12.304779l0 0c0 9.610626 -7.790947 17.401566 -17.401573 17.401566l0 0c-9.610626 0 -17.401573 -7.7909393 -17.401573 -17.401566z" fill-rule="evenodd"></path><path stroke="#000000" stroke-width="1.0" stroke-linejoin="round" stroke-linecap="butt" stroke-dasharray="1.0,3.0" d="m83.98819 167.66405l0 0c0 -9.610626 7.790947 -17.40158 17.401573 -17.40158l0 0c4.6151886 0 9.041344 1.833374 12.304771 5.0968018c3.2634277 3.2634277 5.0968018 7.6895905 5.0968018 12.304779l0 0c0 9.610626 -7.790947 17.401566 -17.401573 17.401566l0 0c-9.610626 0 -17.401573 -7.7909393 -17.401573 -17.401566z" fill-rule="evenodd"></path><path fill="#000000" fill-opacity="0.0" d="m98.92126 272.3727l154.58267 0l0 52.188965l-154.58267 0z" fill-rule="evenodd"></path><path fill="#000000" d="m150.72179 299.2927l0 -13.59375l5.125 0q1.359375 0 2.078125 0.125q1.0 0.171875 1.671875 0.640625q0.671875 0.46875 1.078125 1.3125q0.421875 0.84375 0.421875 1.84375q0 1.734375 -1.109375 2.9375q-1.09375 1.203125 -3.984375 1.203125l-3.484375 0l0 5.53125l-1.796875 0zm1.796875 -7.140625l3.515625 0q1.75 0 2.46875 -0.640625q0.734375 -0.65625 0.734375 -1.828125q0 -0.859375 -0.4375 -1.46875q-0.421875 -0.609375 -1.125 -0.796875q-0.453125 -0.125 -1.671875 -0.125l-3.484375 0l0 4.859375zm9.787323 3.0625l0 -1.6875l5.125 0l0 1.6875l-5.125 0zm10.509552 2.578125l0.234375 1.484375q-0.703125 0.140625 -1.265625 0.140625q-0.90625 0 -1.40625 -0.28125q-0.5 -0.296875 -0.703125 -0.75q-0.203125 -0.46875 -0.203125 -1.984375l0 -5.65625l-1.234375 0l0 -1.3125l1.234375 0l0 -2.4375l1.65625 -1.0l0 3.4375l1.6875 0l0 1.3125l-1.6875 0l0 5.75q0 0.71875 0.078125 0.921875q0.09375 0.203125 0.296875 0.328125q0.203125 0.125 0.578125 0.125q0.265625 0 0.734375 -0.078125zm1.4489288 5.296875l-0.171875 -1.5625q0.546875 0.140625 0.953125 0.140625q0.546875 0 0.875 -0.1875q0.34375 -0.1875 0.5625 -0.515625q0.15625 -0.25 0.5 -1.25q0.046875 -0.140625 0.15625 -0.40625l-3.734375 -9.875l1.796875 0l2.046875 5.71875q0.40625 1.078125 0.71875 2.28125q0.28125 -1.15625 0.6875 -2.25l2.09375 -5.75l1.671875 0l-3.75 10.03125q-0.59375 1.625 -0.9375 2.234375q-0.4375 0.828125 -1.015625 1.203125q-0.578125 0.390625 -1.375 0.390625q-0.484375 0 -1.078125 -0.203125zm9.40625 -0.015625l0 -13.640625l1.53125 0l0 1.28125q0.53125 -0.75 1.203125 -1.125q0.6875 -0.375 1.640625 -0.375q1.265625 0 2.234375 0.65625q0.96875 0.640625 1.453125 1.828125q0.5 1.1875 0.5 2.59375q0 1.515625 -0.546875 2.734375q-0.546875 1.203125 -1.578125 1.84375q-1.03125 0.640625 -2.171875 0.640625q-0.84375 0 -1.515625 -0.34375q-0.65625 -0.359375 -1.078125 -0.890625l0 4.796875l-1.671875 0zm1.515625 -8.65625q0 1.90625 0.765625 2.8125q0.78125 0.90625 1.875 0.90625q1.109375 0 1.890625 -0.9375q0.796875 -0.9375 0.796875 -2.921875q0 -1.875 -0.78125 -2.8125q-0.765625 -0.9375 -1.84375 -0.9375q-1.0625 0 -1.890625 1.0q-0.8125 1.0 -0.8125 2.890625zm15.610092 1.703125l1.71875 0.21875q-0.40625 1.5 -1.515625 2.34375q-1.09375 0.828125 -2.8125 0.828125q-2.15625 0 -3.421875 -1.328125q-1.265625 -1.328125 -1.265625 -3.734375q0 -2.484375 1.265625 -3.859375q1.28125 -1.375 3.328125 -1.375q1.984375 0 3.234375 1.34375q1.25 1.34375 1.25 3.796875q0 0.140625 -0.015625 0.4375l-7.34375 0q0.09375 1.625 0.921875 2.484375q0.828125 0.859375 2.0625 0.859375q0.90625 0 1.546875 -0.46875q0.65625 -0.484375 1.046875 -1.546875zm-5.484375 -2.703125l5.5 0q-0.109375 -1.234375 -0.625 -1.859375q-0.796875 -0.96875 -2.078125 -0.96875q-1.140625 0 -1.9375 0.78125q-0.78125 0.765625 -0.859375 2.046875z" fill-rule="nonzero"></path><path fill="#000000" d="m116.13058 318.3552l1.65625 -0.265625q0.140625 1.0 0.765625 1.53125q0.640625 0.515625 1.78125 0.515625q1.15625 0 1.703125 -0.46875q0.5625 -0.46875 0.5625 -1.09375q0 -0.5625 -0.484375 -0.890625q-0.34375 -0.21875 -1.703125 -0.5625q-1.84375 -0.46875 -2.5625 -0.796875q-0.703125 -0.34375 -1.078125 -0.9375q-0.359375 -0.609375 -0.359375 -1.328125q0 -0.65625 0.296875 -1.21875q0.3125 -0.5625 0.828125 -0.9375q0.390625 -0.28125 1.0625 -0.484375q0.671875 -0.203125 1.4375 -0.203125q1.171875 0 2.046875 0.34375q0.875 0.328125 1.28125 0.90625q0.421875 0.5625 0.578125 1.515625l-1.625 0.21875q-0.109375 -0.75 -0.65625 -1.171875q-0.53125 -0.4375 -1.5 -0.4375q-1.15625 0 -1.640625 0.390625q-0.484375 0.375 -0.484375 0.875q0 0.328125 0.203125 0.59375q0.203125 0.265625 0.640625 0.4375q0.25 0.09375 1.46875 0.4375q1.765625 0.46875 2.46875 0.765625q0.703125 0.296875 1.09375 0.875q0.40625 0.578125 0.40625 1.4375q0 0.828125 -0.484375 1.578125q-0.484375 0.734375 -1.40625 1.140625q-0.921875 0.390625 -2.078125 0.390625q-1.921875 0 -2.9375 -0.796875q-1.0 -0.796875 -1.28125 -2.359375zm16.750008 -0.234375l1.71875 0.21875q-0.40625 1.5 -1.515625 2.34375q-1.09375 0.828125 -2.8125 0.828125q-2.15625 0 -3.4218826 -1.328125q-1.265625 -1.328125 -1.265625 -3.734375q0 -2.484375 1.265625 -3.859375q1.2812576 -1.375 3.3281326 -1.375q1.984375 0 3.234375 1.34375q1.25 1.34375 1.25 3.796875q0 0.140625 -0.015625 0.4375l-7.3437576 0q0.09375 1.625 0.9218826 2.484375q0.828125 0.859375 2.0625 0.859375q0.90625 0 1.546875 -0.46875q0.65625 -0.484375 1.046875 -1.546875zm-5.4843826 -2.703125l5.5000076 0q-0.109375 -1.234375 -0.625 -1.859375q-0.796875 -0.96875 -2.078125 -0.96875q-1.140625 0 -1.9375 0.78125q-0.7812576 0.765625 -0.8593826 2.046875zm9.1101 5.875l0 -9.859375l1.5 0l0 1.390625q0.453125 -0.71875 1.21875 -1.15625q0.78125 -0.453125 1.765625 -0.453125q1.09375 0 1.796875 0.453125q0.703125 0.453125 0.984375 1.28125q1.171875 -1.734375 3.046875 -1.734375q1.46875 0 2.25 0.8125q0.796875 0.8125 0.796875 2.5l0 6.765625l-1.671875 0l0 -6.203125q0 -1.0 -0.15625 -1.4375q-0.15625 -0.453125 -0.59375 -0.71875q-0.421875 -0.265625 -1.0 -0.265625q-1.03125 0 -1.71875 0.6875q-0.6875 0.6875 -0.6875 2.21875l0 5.71875l-1.671875 0l0 -6.40625q0 -1.109375 -0.40625 -1.65625q-0.40625 -0.5625 -1.34375 -0.5625q-0.703125 0 -1.3125 0.375q-0.59375 0.359375 -0.859375 1.078125q-0.265625 0.71875 -0.265625 2.0625l0 5.109375l-1.671875 0zm15.556427 -11.6875l0 -1.90625l1.671875 0l0 1.90625l-1.671875 0zm0 11.6875l0 -9.859375l1.671875 0l0 9.859375l-1.671875 0zm10.566696 -3.609375l1.640625 0.21875q-0.265625 1.6875 -1.375 2.65625q-1.109375 0.953125 -2.734375 0.953125q-2.015625 0 -3.25 -1.3125q-1.21875 -1.328125 -1.21875 -3.796875q0 -1.59375 0.515625 -2.78125q0.53125 -1.203125 1.609375 -1.796875q1.09375 -0.609375 2.359375 -0.609375q1.609375 0 2.625 0.8125q1.015625 0.8125 1.3125 2.3125l-1.625 0.25q-0.234375 -1.0 -0.828125 -1.5q-0.59375 -0.5 -1.421875 -0.5q-1.265625 0 -2.0625 0.90625q-0.78125 0.90625 -0.78125 2.859375q0 1.984375 0.765625 2.890625q0.765625 0.890625 1.984375 0.890625q0.984375 0 1.640625 -0.59375q0.65625 -0.609375 0.84375 -1.859375zm2.265625 -1.3125q0 -2.734375 1.53125 -4.0625q1.265625 -1.09375 3.09375 -1.09375q2.03125 0 3.3125 1.34375q1.296875 1.328125 1.296875 3.671875q0 1.90625 -0.578125 3.0q-0.5625 1.078125 -1.65625 1.6875q-1.078125 0.59375 -2.375 0.59375q-2.0625 0 -3.34375 -1.328125q-1.28125 -1.328125 -1.28125 -3.8125zm1.71875 0q0 1.890625 0.828125 2.828125q0.828125 0.9375 2.078125 0.9375q1.25 0 2.0625 -0.9375q0.828125 -0.953125 0.828125 -2.890625q0 -1.828125 -0.828125 -2.765625q-0.828125 -0.9375 -2.0625 -0.9375q-1.25 0 -2.078125 0.9375q-0.828125 0.9375 -0.828125 2.828125zm9.281967 4.921875l0 -9.859375l1.5 0l0 1.40625q1.09375 -1.625 3.140625 -1.625q0.890625 0 1.640625 0.328125q0.75 0.3125 1.109375 0.84375q0.375 0.515625 0.53125 1.21875q0.09375 0.46875 0.09375 1.625l0 6.0625l-1.671875 0l0 -6.0q0 -1.015625 -0.203125 -1.515625q-0.1875 -0.515625 -0.6875 -0.8125q-0.5 -0.296875 -1.171875 -0.296875q-1.0625 0 -1.84375 0.671875q-0.765625 0.671875 -0.765625 2.578125l0 5.375l-1.671875 0zm16.766342 0l0 -1.25q-0.9375 1.46875 -2.75 1.46875q-1.171875 0 -2.171875 -0.640625q-0.984375 -0.65625 -1.53125 -1.8125q-0.53125 -1.171875 -0.53125 -2.6875q0 -1.46875 0.484375 -2.671875q0.5 -1.203125 1.46875 -1.84375q0.984375 -0.640625 2.203125 -0.640625q0.890625 0 1.578125 0.375q0.703125 0.375 1.140625 0.984375l0 -4.875l1.65625 0l0 13.59375l-1.546875 0zm-5.28125 -4.921875q0 1.890625 0.796875 2.828125q0.8125 0.9375 1.890625 0.9375q1.09375 0 1.859375 -0.890625q0.765625 -0.890625 0.765625 -2.734375q0 -2.015625 -0.78125 -2.953125q-0.78125 -0.953125 -1.921875 -0.953125q-1.109375 0 -1.859375 0.90625q-0.75 0.90625 -0.75 2.859375zm15.719467 4.921875l0 -1.453125q-1.140625 1.671875 -3.125 1.671875q-0.859375 0 -1.625 -0.328125q-0.75 -0.34375 -1.125 -0.84375q-0.359375 -0.5 -0.515625 -1.234375q-0.09375 -0.5 -0.09375 -1.5625l0 -6.109375l1.671875 0l0 5.46875q0 1.3125 0.09375 1.765625q0.15625 0.65625 0.671875 1.03125q0.515625 0.375 1.265625 0.375q0.75 0 1.40625 -0.375q0.65625 -0.390625 0.921875 -1.046875q0.28125 -0.671875 0.28125 -1.9375l0 -5.28125l1.671875 0l0 9.859375l-1.5 0zm10.360092 -3.609375l1.640625 0.21875q-0.265625 1.6875 -1.375 2.65625q-1.109375 0.953125 -2.734375 0.953125q-2.015625 0 -3.25 -1.3125q-1.21875 -1.328125 -1.21875 -3.796875q0 -1.59375 0.515625 -2.78125q0.53125 -1.203125 1.609375 -1.796875q1.09375 -0.609375 2.359375 -0.609375q1.609375 0 2.625 0.8125q1.015625 0.8125 1.3125 2.3125l-1.625 0.25q-0.234375 -1.0 -0.828125 -1.5q-0.59375 -0.5 -1.421875 -0.5q-1.265625 0 -2.0625 0.90625q-0.78125 0.90625 -0.78125 2.859375q0 1.984375 0.765625 2.890625q0.765625 0.890625 1.984375 0.890625q0.984375 0 1.640625 -0.59375q0.65625 -0.609375 0.84375 -1.859375zm6.546875 2.109375l0.234375 1.484375q-0.703125 0.140625 -1.265625 0.140625q-0.90625 0 -1.40625 -0.28125q-0.5 -0.296875 -0.703125 -0.75q-0.203125 -0.46875 -0.203125 -1.984375l0 -5.65625l-1.234375 0l0 -1.3125l1.234375 0l0 -2.4375l1.65625 -1.0l0 3.4375l1.6875 0l0 1.3125l-1.6875 0l0 5.75q0 0.71875 0.078125 0.921875q0.09375 0.203125 0.296875 0.328125q0.203125 0.125 0.578125 0.125q0.265625 0 0.734375 -0.078125zm0.90205383 -3.421875q0 -2.734375 1.53125 -4.0625q1.265625 -1.09375 3.09375 -1.09375q2.03125 0 3.3125 1.34375q1.296875 1.328125 1.296875 3.671875q0 1.90625 -0.578125 3.0q-0.5625 1.078125 -1.65625 1.6875q-1.078125 0.59375 -2.375 0.59375q-2.0625 0 -3.34375 -1.328125q-1.28125 -1.328125 -1.28125 -3.8125zm1.71875 0q0 1.890625 0.828125 2.828125q0.828125 0.9375 2.078125 0.9375q1.25 0 2.0625 -0.9375q0.828125 -0.953125 0.828125 -2.890625q0 -1.828125 -0.828125 -2.765625q-0.828125 -0.9375 -2.0625 -0.9375q-1.25 0 -2.078125 0.9375q-0.828125 0.9375 -0.828125 2.828125zm9.266342 4.921875l0 -9.859375l1.5 0l0 1.5q0.578125 -1.046875 1.0625 -1.375q0.484375 -0.34375 1.078125 -0.34375q0.84375 0 1.71875 0.546875l-0.578125 1.546875q-0.609375 -0.359375 -1.234375 -0.359375q-0.546875 0 -0.984375 0.328125q-0.421875 0.328125 -0.609375 0.90625q-0.28125 0.890625 -0.28125 1.953125l0 5.15625l-1.671875 0z" fill-rule="nonzero"></path><path fill="#000000" fill-opacity="0.0" d="m271.37796 272.3727l154.58267 0l0 52.188965l-154.58267 0z" fill-rule="evenodd"></path><path fill="#000000" d="m322.64816 299.2927l0 -13.59375l1.84375 0l7.140625 10.671875l0 -10.671875l1.71875 0l0 13.59375l-1.84375 0l-7.140625 -10.6875l0 10.6875l-1.71875 0zm12.629211 -4.078125l0 -1.6875l5.125 0l0 1.6875l-5.125 0zm10.509552 2.578125l0.234375 1.484375q-0.703125 0.140625 -1.265625 0.140625q-0.90625 0 -1.40625 -0.28125q-0.5 -0.296875 -0.703125 -0.75q-0.203125 -0.46875 -0.203125 -1.984375l0 -5.65625l-1.234375 0l0 -1.3125l1.234375 0l0 -2.4375l1.65625 -1.0l0 3.4375l1.6875 0l0 1.3125l-1.6875 0l0 5.75q0 0.71875 0.078125 0.921875q0.09375 0.203125 0.296875 0.328125q0.203125 0.125 0.578125 0.125q0.265625 0 0.734375 -0.078125zm1.4489136 5.296875l-0.171875 -1.5625q0.546875 0.140625 0.953125 0.140625q0.546875 0 0.875 -0.1875q0.34375 -0.1875 0.5625 -0.515625q0.15625 -0.25 0.5 -1.25q0.046875 -0.140625 0.15625 -0.40625l-3.734375 -9.875l1.796875 0l2.046875 5.71875q0.40625 1.078125 0.71875 2.28125q0.28125 -1.15625 0.6875 -2.25l2.09375 -5.75l1.671875 0l-3.75 10.03125q-0.59375 1.625 -0.9375 2.234375q-0.4375 0.828125 -1.015625 1.203125q-0.578125 0.390625 -1.375 0.390625q-0.484375 0 -1.078125 -0.203125zm9.40625 -0.015625l0 -13.640625l1.53125 0l0 1.28125q0.53125 -0.75 1.203125 -1.125q0.6875 -0.375 1.640625 -0.375q1.265625 0 2.234375 0.65625q0.96875 0.640625 1.453125 1.828125q0.5 1.1875 0.5 2.59375q0 1.515625 -0.546875 2.734375q-0.546875 1.203125 -1.578125 1.84375q-1.03125 0.640625 -2.171875 0.640625q-0.84375 0 -1.515625 -0.34375q-0.65625 -0.359375 -1.078125 -0.890625l0 4.796875l-1.671875 0zm1.515625 -8.65625q0 1.90625 0.765625 2.8125q0.78125 0.90625 1.875 0.90625q1.109375 0 1.890625 -0.9375q0.796875 -0.9375 0.796875 -2.921875q0 -1.875 -0.78125 -2.8125q-0.765625 -0.9375 -1.84375 -0.9375q-1.0625 0 -1.890625 1.0q-0.8125 1.0 -0.8125 2.890625zm15.610107 1.703125l1.71875 0.21875q-0.40625 1.5 -1.515625 2.34375q-1.09375 0.828125 -2.8125 0.828125q-2.15625 0 -3.421875 -1.328125q-1.265625 -1.328125 -1.265625 -3.734375q0 -2.484375 1.265625 -3.859375q1.28125 -1.375 3.328125 -1.375q1.984375 0 3.234375 1.34375q1.25 1.34375 1.25 3.796875q0 0.140625 -0.015625 0.4375l-7.34375 0q0.09375 1.625 0.921875 2.484375q0.828125 0.859375 2.0625 0.859375q0.90625 0 1.546875 -0.46875q0.65625 -0.484375 1.046875 -1.546875zm-5.484375 -2.703125l5.5 0q-0.109375 -1.234375 -0.625 -1.859375q-0.796875 -0.96875 -2.078125 -0.96875q-1.140625 0 -1.9375 0.78125q-0.78125 0.765625 -0.859375 2.046875z" fill-rule="nonzero"></path><path fill="#000000" d="m288.58728 318.3552l1.65625 -0.265625q0.140625 1.0 0.765625 1.53125q0.640625 0.515625 1.78125 0.515625q1.15625 0 1.703125 -0.46875q0.5625 -0.46875 0.5625 -1.09375q0 -0.5625 -0.484375 -0.890625q-0.34375 -0.21875 -1.703125 -0.5625q-1.84375 -0.46875 -2.5625 -0.796875q-0.703125 -0.34375 -1.078125 -0.9375q-0.359375 -0.609375 -0.359375 -1.328125q0 -0.65625 0.296875 -1.21875q0.3125 -0.5625 0.828125 -0.9375q0.390625 -0.28125 1.0625 -0.484375q0.671875 -0.203125 1.4375 -0.203125q1.171875 0 2.046875 0.34375q0.875 0.328125 1.28125 0.90625q0.421875 0.5625 0.578125 1.515625l-1.625 0.21875q-0.109375 -0.75 -0.65625 -1.171875q-0.53125 -0.4375 -1.5 -0.4375q-1.15625 0 -1.640625 0.390625q-0.484375 0.375 -0.484375 0.875q0 0.328125 0.203125 0.59375q0.203125 0.265625 0.640625 0.4375q0.25 0.09375 1.46875 0.4375q1.765625 0.46875 2.46875 0.765625q0.703125 0.296875 1.09375 0.875q0.40625 0.578125 0.40625 1.4375q0 0.828125 -0.484375 1.578125q-0.484375 0.734375 -1.40625 1.140625q-0.921875 0.390625 -2.078125 0.390625q-1.921875 0 -2.9375 -0.796875q-1.0 -0.796875 -1.28125 -2.359375zm16.75 -0.234375l1.71875 0.21875q-0.40625 1.5 -1.515625 2.34375q-1.09375 0.828125 -2.8125 0.828125q-2.15625 0 -3.421875 -1.328125q-1.265625 -1.328125 -1.265625 -3.734375q0 -2.484375 1.265625 -3.859375q1.28125 -1.375 3.328125 -1.375q1.984375 0 3.234375 1.34375q1.25 1.34375 1.25 3.796875q0 0.140625 -0.015625 0.4375l-7.34375 0q0.09375 1.625 0.921875 2.484375q0.828125 0.859375 2.0625 0.859375q0.90625 0 1.546875 -0.46875q0.65625 -0.484375 1.046875 -1.546875zm-5.484375 -2.703125l5.5 0q-0.109375 -1.234375 -0.625 -1.859375q-0.796875 -0.96875 -2.078125 -0.96875q-1.140625 0 -1.9375 0.78125q-0.78125 0.765625 -0.859375 2.046875zm9.110077 5.875l0 -9.859375l1.5 0l0 1.390625q0.453125 -0.71875 1.21875 -1.15625q0.78125 -0.453125 1.765625 -0.453125q1.09375 0 1.796875 0.453125q0.703125 0.453125 0.984375 1.28125q1.171875 -1.734375 3.046875 -1.734375q1.46875 0 2.25 0.8125q0.796875 0.8125 0.796875 2.5l0 6.765625l-1.671875 0l0 -6.203125q0 -1.0 -0.15625 -1.4375q-0.15625 -0.453125 -0.59375 -0.71875q-0.421875 -0.265625 -1.0 -0.265625q-1.03125 0 -1.71875 0.6875q-0.6875 0.6875 -0.6875 2.21875l0 5.71875l-1.671875 0l0 -6.40625q0 -1.109375 -0.40625 -1.65625q-0.40625 -0.5625 -1.34375 -0.5625q-0.703125 0 -1.3125 0.375q-0.59375 0.359375 -0.859375 1.078125q-0.265625 0.71875 -0.265625 2.0625l0 5.109375l-1.671875 0zm15.556427 -11.6875l0 -1.90625l1.671875 0l0 1.90625l-1.671875 0zm0 11.6875l0 -9.859375l1.671875 0l0 9.859375l-1.671875 0zm10.566711 -3.609375l1.640625 0.21875q-0.265625 1.6875 -1.375 2.65625q-1.109375 0.953125 -2.734375 0.953125q-2.015625 0 -3.25 -1.3125q-1.21875 -1.328125 -1.21875 -3.796875q0 -1.59375 0.515625 -2.78125q0.53125 -1.203125 1.609375 -1.796875q1.09375 -0.609375 2.359375 -0.609375q1.609375 0 2.625 0.8125q1.015625 0.8125 1.3125 2.3125l-1.625 0.25q-0.234375 -1.0 -0.828125 -1.5q-0.59375 -0.5 -1.421875 -0.5q-1.265625 0 -2.0625 0.90625q-0.78125 0.90625 -0.78125 2.859375q0 1.984375 0.765625 2.890625q0.765625 0.890625 1.984375 0.890625q0.984375 0 1.640625 -0.59375q0.65625 -0.609375 0.84375 -1.859375zm2.265625 -1.3125q0 -2.734375 1.53125 -4.0625q1.265625 -1.09375 3.09375 -1.09375q2.03125 0 3.3125 1.34375q1.296875 1.328125 1.296875 3.671875q0 1.90625 -0.578125 3.0q-0.5625 1.078125 -1.65625 1.6875q-1.078125 0.59375 -2.375 0.59375q-2.0625 0 -3.34375 -1.328125q-1.28125 -1.328125 -1.28125 -3.8125zm1.71875 0q0 1.890625 0.828125 2.828125q0.828125 0.9375 2.078125 0.9375q1.25 0 2.0625 -0.9375q0.828125 -0.953125 0.828125 -2.890625q0 -1.828125 -0.828125 -2.765625q-0.828125 -0.9375 -2.0625 -0.9375q-1.25 0 -2.078125 0.9375q-0.828125 0.9375 -0.828125 2.828125zm9.281952 4.921875l0 -9.859375l1.5 0l0 1.40625q1.09375 -1.625 3.140625 -1.625q0.890625 0 1.640625 0.328125q0.75 0.3125 1.109375 0.84375q0.375 0.515625 0.53125 1.21875q0.09375 0.46875 0.09375 1.625l0 6.0625l-1.671875 0l0 -6.0q0 -1.015625 -0.203125 -1.515625q-0.1875 -0.515625 -0.6875 -0.8125q-0.5 -0.296875 -1.171875 -0.296875q-1.0625 0 -1.84375 0.671875q-0.765625 0.671875 -0.765625 2.578125l0 5.375l-1.671875 0zm16.766357 0l0 -1.25q-0.9375 1.46875 -2.75 1.46875q-1.171875 0 -2.171875 -0.640625q-0.984375 -0.65625 -1.53125 -1.8125q-0.53125 -1.171875 -0.53125 -2.6875q0 -1.46875 0.484375 -2.671875q0.5 -1.203125 1.46875 -1.84375q0.984375 -0.640625 2.203125 -0.640625q0.890625 0 1.578125 0.375q0.703125 0.375 1.140625 0.984375l0 -4.875l1.65625 0l0 13.59375l-1.546875 0zm-5.28125 -4.921875q0 1.890625 0.796875 2.828125q0.8125 0.9375 1.890625 0.9375q1.09375 0 1.859375 -0.890625q0.765625 -0.890625 0.765625 -2.734375q0 -2.015625 -0.78125 -2.953125q-0.78125 -0.953125 -1.921875 -0.953125q-1.109375 0 -1.859375 0.90625q-0.75 0.90625 -0.75 2.859375zm15.719452 4.921875l0 -1.453125q-1.140625 1.671875 -3.125 1.671875q-0.859375 0 -1.625 -0.328125q-0.75 -0.34375 -1.125 -0.84375q-0.359375 -0.5 -0.515625 -1.234375q-0.09375 -0.5 -0.09375 -1.5625l0 -6.109375l1.671875 0l0 5.46875q0 1.3125 0.09375 1.765625q0.15625 0.65625 0.671875 1.03125q0.515625 0.375 1.265625 0.375q0.75 0 1.40625 -0.375q0.65625 -0.390625 0.921875 -1.046875q0.28125 -0.671875 0.28125 -1.9375l0 -5.28125l1.671875 0l0 9.859375l-1.5 0zm10.360107 -3.609375l1.640625 0.21875q-0.265625 1.6875 -1.375 2.65625q-1.109375 0.953125 -2.734375 0.953125q-2.015625 0 -3.25 -1.3125q-1.21875 -1.328125 -1.21875 -3.796875q0 -1.59375 0.515625 -2.78125q0.53125 -1.203125 1.609375 -1.796875q1.09375 -0.609375 2.359375 -0.609375q1.609375 0 2.625 0.8125q1.015625 0.8125 1.3125 2.3125l-1.625 0.25q-0.234375 -1.0 -0.828125 -1.5q-0.59375 -0.5 -1.421875 -0.5q-1.265625 0 -2.0625 0.90625q-0.78125 0.90625 -0.78125 2.859375q0 1.984375 0.765625 2.890625q0.765625 0.890625 1.984375 0.890625q0.984375 0 1.640625 -0.59375q0.65625 -0.609375 0.84375 -1.859375zm6.546875 2.109375l0.234375 1.484375q-0.703125 0.140625 -1.265625 0.140625q-0.90625 0 -1.40625 -0.28125q-0.5 -0.296875 -0.703125 -0.75q-0.203125 -0.46875 -0.203125 -1.984375l0 -5.65625l-1.234375 0l0 -1.3125l1.234375 0l0 -2.4375l1.65625 -1.0l0 3.4375l1.6875 0l0 1.3125l-1.6875 0l0 5.75q0 0.71875 0.078125 0.921875q0.09375 0.203125 0.296875 0.328125q0.203125 0.125 0.578125 0.125q0.265625 0 0.734375 -0.078125zm0.9020386 -3.421875q0 -2.734375 1.53125 -4.0625q1.265625 -1.09375 3.09375 -1.09375q2.03125 0 3.3125 1.34375q1.296875 1.328125 1.296875 3.671875q0 1.90625 -0.578125 3.0q-0.5625 1.078125 -1.65625 1.6875q-1.078125 0.59375 -2.375 0.59375q-2.0625 0 -3.34375 -1.328125q-1.28125 -1.328125 -1.28125 -3.8125zm1.71875 0q0 1.890625 0.828125 2.828125q0.828125 0.9375 2.078125 0.9375q1.25 0 2.0625 -0.9375q0.828125 -0.953125 0.828125 -2.890625q0 -1.828125 -0.828125 -2.765625q-0.828125 -0.9375 -2.0625 -0.9375q-1.25 0 -2.078125 0.9375q-0.828125 0.9375 -0.828125 2.828125zm9.266357 4.921875l0 -9.859375l1.5 0l0 1.5q0.578125 -1.046875 1.0625 -1.375q0.484375 -0.34375 1.078125 -0.34375q0.84375 0 1.71875 0.546875l-0.578125 1.546875q-0.609375 -0.359375 -1.234375 -0.359375q-0.546875 0 -0.984375 0.328125q-0.421875 0.328125 -0.609375 0.90625q-0.28125 0.890625 -0.28125 1.953125l0 5.15625l-1.671875 0z" fill-rule="nonzero"></path><path fill="#000000" fill-opacity="0.0" d="m-12.0 140.55118l66.267715 0l0 39.46457l-66.267715 0z" fill-rule="evenodd"></path><path fill="#000000" d="m11.245743 167.20346l0 -13.59375l1.671875 0l0 4.875q1.171875 -1.359375 2.953125 -1.359375q1.09375 0 1.890625 0.4375q0.8125 0.421875 1.15625 1.1875q0.359375 0.765625 0.359375 2.203125l0 6.25l-1.671875 0l0 -6.25q0 -1.25 -0.546875 -1.8125q-0.546875 -0.578125 -1.53125 -0.578125q-0.75 0 -1.40625 0.390625q-0.640625 0.375 -0.921875 1.046875q-0.28125 0.65625 -0.28125 1.8125l0 5.390625l-1.671875 0zm9.750717 -4.921875q0 -2.734375 1.53125 -4.0625q1.265625 -1.09375 3.09375 -1.09375q2.03125 0 3.3125 1.34375q1.296875 1.328125 1.296875 3.671875q0 1.90625 -0.578125 3.0q-0.5625 1.078125 -1.65625 1.6875q-1.078125 0.59375 -2.375 0.59375q-2.0625 0 -3.34375 -1.328125q-1.28125 -1.328125 -1.28125 -3.8125zm1.71875 0q0 1.890625 0.828125 2.828125q0.828125 0.9375 2.078125 0.9375q1.25 0 2.0625 -0.9375q0.828125 -0.953125 0.828125 -2.890625q0 -1.828125 -0.828125 -2.765625q-0.828125 -0.9375 -2.0625 -0.9375q-1.25 0 -2.078125 0.9375q-0.828125 0.9375 -0.828125 2.828125zm9.250717 4.921875l0 -13.59375l1.671875 0l0 13.59375l-1.671875 0zm10.926071 -3.171875l1.71875 0.21875q-0.40625 1.5 -1.515625 2.34375q-1.09375 0.828125 -2.8125 0.828125q-2.15625 0 -3.421875 -1.328125q-1.265625 -1.328125 -1.265625 -3.734375q0 -2.484375 1.265625 -3.859375q1.28125 -1.375 3.328125 -1.375q1.984375 0 3.234375 1.34375q1.25 1.34375 1.25 3.796875q0 0.140625 -0.015625 0.4375l-7.34375 0q0.09375 1.625 0.921875 2.484375q0.828125 0.859375 2.0625 0.859375q0.90625 0 1.546875 -0.46875q0.65625 -0.484375 1.046875 -1.546875zm-5.484375 -2.703125l5.5 0q-0.109375 -1.234375 -0.625 -1.859375q-0.796875 -0.96875 -2.078125 -0.96875q-1.140625 0 -1.9375 0.78125q-0.78125 0.765625 -0.859375 2.046875z" fill-rule="nonzero"></path><path fill="#000000" fill-opacity="0.0" d="m465.11023 152.08923l90.92914 0l0 46.519684l-90.92914 0z" fill-rule="evenodd"></path><path fill="#000000" d="m482.11023 179.0972l1.71875 0.21875q-0.40625 1.5 -1.515625 2.34375q-1.09375 0.828125 -2.8125 0.828125q-2.15625 0 -3.421875 -1.328125q-1.265625 -1.328125 -1.265625 -3.734375q0 -2.484375 1.265625 -3.859375q1.28125 -1.375 3.328125 -1.375q1.984375 0 3.234375 1.34375q1.25 1.34375 1.25 3.796875q0 0.140625 -0.015625 0.4375l-7.34375 0q0.09375 1.625 0.921875 2.484375q0.828125 0.859375 2.0625 0.859375q0.90625 0 1.546875 -0.46875q0.65625 -0.484375 1.046875 -1.546875zm-5.484375 -2.703125l5.5 0q-0.109375 -1.234375 -0.625 -1.859375q-0.796875 -0.96875 -2.078125 -0.96875q-1.140625 0 -1.9375 0.78125q-0.78125 0.765625 -0.859375 2.046875zm9.078857 5.875l0 -13.59375l1.671875 0l0 13.59375l-1.671875 0zm10.926056 -3.171875l1.71875 0.21875q-0.40625 1.5 -1.515625 2.34375q-1.09375 0.828125 -2.8125 0.828125q-2.15625 0 -3.421875 -1.328125q-1.265625 -1.328125 -1.265625 -3.734375q0 -2.484375 1.265625 -3.859375q1.28125 -1.375 3.328125 -1.375q1.984375 0 3.234375 1.34375q1.25 1.34375 1.25 3.796875q0 0.140625 -0.015625 0.4375l-7.34375 0q0.09375 1.625 0.921875 2.484375q0.828125 0.859375 2.0625 0.859375q0.90625 0 1.546875 -0.46875q0.65625 -0.484375 1.046875 -1.546875zm-5.484375 -2.703125l5.5 0q-0.109375 -1.234375 -0.625 -1.859375q-0.796875 -0.96875 -2.078125 -0.96875q-1.140625 0 -1.9375 0.78125q-0.78125 0.765625 -0.859375 2.046875zm15.547607 2.265625l1.640625 0.21875q-0.265625 1.6875 -1.375 2.65625q-1.109375 0.953125 -2.734375 0.953125q-2.015625 0 -3.25 -1.3125q-1.21875 -1.328125 -1.21875 -3.796875q0 -1.59375 0.515625 -2.78125q0.53125 -1.203125 1.609375 -1.796875q1.09375 -0.609375 2.359375 -0.609375q1.609375 0 2.625 0.8125q1.015625 0.8125 1.3125 2.3125l-1.625 0.25q-0.234375 -1.0 -0.828125 -1.5q-0.59375 -0.5 -1.421875 -0.5q-1.265625 0 -2.0625 0.90625q-0.78125 0.90625 -0.78125 2.859375q0 1.984375 0.765625 2.890625q0.765625 0.890625 1.984375 0.890625q0.984375 0 1.640625 -0.59375q0.65625 -0.609375 0.84375 -1.859375zm6.5468445 2.109375l0.234375 1.484375q-0.703125 0.140625 -1.265625 0.140625q-0.9062195 0 -1.4062195 -0.28125q-0.5 -0.296875 -0.703125 -0.75q-0.203125 -0.46875 -0.203125 -1.984375l0 -5.65625l-1.234375 0l0 -1.3125l1.234375 0l0 -2.4375l1.65625 -1.0l0 3.4375l1.6874695 0l0 1.3125l-1.6874695 0l0 5.75q0 0.71875 0.078125 0.921875q0.09375 0.203125 0.296875 0.328125q0.20309448 0.125 0.5780945 0.125q0.265625 0 0.734375 -0.078125zm1.5114746 1.5l0 -9.859375l1.5 0l0 1.5q0.578125 -1.046875 1.0625 -1.375q0.484375 -0.34375 1.078125 -0.34375q0.84375 0 1.71875 0.546875l-0.578125 1.546875q-0.609375 -0.359375 -1.234375 -0.359375q-0.546875 0 -0.984375 0.328125q-0.421875 0.328125 -0.609375 0.90625q-0.28125 0.890625 -0.28125 1.953125l0 5.15625l-1.671875 0zm5.6032715 -4.921875q0 -2.734375 1.53125 -4.0625q1.265625 -1.09375 3.09375 -1.09375q2.03125 0 3.3125 1.34375q1.296875 1.328125 1.296875 3.671875q0 1.90625 -0.578125 3.0q-0.5625 1.078125 -1.65625 1.6875q-1.078125 0.59375 -2.375 0.59375q-2.0625 0 -3.34375 -1.328125q-1.28125 -1.328125 -1.28125 -3.8125zm1.71875 0q0 1.890625 0.828125 2.828125q0.828125 0.9375 2.078125 0.9375q1.25 0 2.0625 -0.9375q0.828125 -0.953125 0.828125 -2.890625q0 -1.828125 -0.828125 -2.765625q-0.828125 -0.9375 -2.0625 -0.9375q-1.25 0 -2.078125 0.9375q-0.828125 0.9375 -0.828125 2.828125zm9.281982 4.921875l0 -9.859375l1.5 0l0 1.40625q1.09375 -1.625 3.140625 -1.625q0.890625 0 1.640625 0.328125q0.75 0.3125 1.109375 0.84375q0.375 0.515625 0.53125 1.21875q0.09375 0.46875 0.09375 1.625l0 6.0625l-1.671875 0l0 -6.0q0 -1.015625 -0.203125 -1.515625q-0.1875 -0.515625 -0.6875 -0.8125q-0.5 -0.296875 -1.171875 -0.296875q-1.0625 0 -1.84375 0.671875q-0.765625 0.671875 -0.765625 2.578125l0 5.375l-1.671875 0z" fill-rule="nonzero"></path><path fill="#000000" fill-opacity="0.0" d="m54.267715 160.28346l29.732285 7.3700867" fill-rule="evenodd"></path><path stroke="#000000" stroke-width="1.0" stroke-linejoin="round" stroke-linecap="butt" d="m54.267715 160.28346l23.908539 5.926483" fill-rule="evenodd"></path><path fill="#000000" stroke="#000000" stroke-width="1.0" stroke-linecap="butt" d="m77.77885 167.81316l4.8021927 -0.51135254l-4.0073776 -2.6950684z" fill-rule="evenodd"></path><path fill="#000000" fill-opacity="0.0" d="m465.11023 175.34908l-33.543304 21.70079" fill-rule="evenodd"></path><path stroke="#000000" stroke-width="1.0" stroke-linejoin="round" stroke-linecap="butt" d="m465.11023 175.34908l-28.505615 18.441666" fill-rule="evenodd"></path><path fill="#000000" stroke="#000000" stroke-width="1.0" stroke-linecap="butt" d="m435.7074 192.40395l-2.913025 3.8518372l4.707428 -1.0782166z" fill-rule="evenodd"></path><path fill="#000000" fill-opacity="0.0" d="m450.32285 199.4357l42.834625 0" fill-rule="evenodd"></path><path stroke="#000000" stroke-width="3.0" stroke-linejoin="round" stroke-linecap="butt" d="m450.32285 199.4357l42.834625 0" fill-rule="evenodd"></path><path fill="#000000" fill-opacity="0.0" d="m32.874016 199.4357l42.83465 0" fill-rule="evenodd"></path><path stroke="#000000" stroke-width="3.0" stroke-linejoin="round" stroke-linecap="butt" d="m32.874016 199.4357l42.83465 0" fill-rule="evenodd"></path><path fill="#b7b7b7" d="m245.45406 133.86089l33.54332 0l0 131.14961l-33.54332 0z" fill-rule="evenodd"></path><path stroke="#000000" stroke-width="1.0" stroke-linejoin="round" stroke-linecap="butt" d="m245.45406 133.86089l33.54332 0l0 131.14961l-33.54332 0z" fill-rule="evenodd"></path><path fill="#000000" fill-opacity="0.0" d="m240.25066 278.90027l0 -158.92914l41.4803 0l0 158.92914z" fill-rule="evenodd"></path><path fill="#000000" d="m266.8508 256.46304l-11.45311 0l0 -3.953125q0 -1.328125 0.15625 -2.03125q0.234375 -0.984375 0.82810974 -1.6875q0.765625 -0.90625 1.953125 -1.34375q1.1875 -0.453125 2.71875 -0.453125q1.3125 0 2.328125 0.3125q1.0 0.296875 1.65625 0.78125q0.65625 0.46875 1.046875 1.03125q0.375 0.5625 0.578125 1.375q0.1875 0.796875 0.1875 1.828125l0 4.140625zm-1.359375 -1.515625l0 -2.453125q0 -1.125 -0.203125 -1.765625q-0.21875 -0.65625 -0.59375 -1.03125q-0.546875 -0.546875 -1.453125 -0.84375q-0.90625 -0.296875 -2.203125 -0.296875q-1.796875 0 -2.765625 0.59375q-0.96875 0.578125 -1.296875 1.421875q-0.234375 0.609375 -0.234375 1.96875l0 2.40625l8.75 0zm-1.3125 -15.5390625l0.171875 -1.453125q1.28125 0.34375 1.984375 1.28125q0.703125 0.921875 0.703125 2.359375q0 1.828125 -1.125 2.890625q-1.125 1.0625 -3.140625 1.0625q-2.09375 0 -3.25 -1.078125q-1.15625 -1.078125 -1.15625 -2.796875q0 -1.65625 1.140625 -2.703125q1.125 -1.0625 3.171875 -1.0625q0.125 0 0.375 0l0 6.1875q1.375 -0.078125 2.109375 -0.765625q0.71875 -0.703125 0.71875 -1.734375q0 -0.78125 -0.40625 -1.328125q-0.40625 -0.546875 -1.296875 -0.859375zm-2.28125 4.609375l0 -4.625q-1.046875 0.09375 -1.5625 0.53125q-0.8125 0.671875 -0.8125 1.734375q0 0.96875 0.65625 1.640625q0.640625 0.65625 1.71875 0.71875zm8.140625 -7.8359375l-11.484375 0l0 -1.28125l1.078125 0q-0.640625 -0.453125 -0.953125 -1.015625q-0.3125 -0.578125 -0.3125 -1.390625q0 -1.0625 0.546875 -1.875q0.546875 -0.8125 1.546875 -1.21875q0.984375 -0.421875 2.171875 -0.421875q1.28125 0 2.296875 0.46875q1.015625 0.453125 1.5625 1.328125q0.546875 0.859375 0.546875 1.828125q0 0.703125 -0.296875 1.265625q-0.296875 0.546875 -0.75 0.90625l4.046875 0l0 1.40625zm-7.296875 -1.265625q1.609375 0 2.375 -0.640625q0.765625 -0.65625 0.765625 -1.578125q0 -0.9375 -0.796875 -1.609375q-0.796875 -0.671875 -2.453125 -0.671875q-1.59375 0 -2.375 0.65625q-0.796875 0.65625 -0.796875 1.5625q0 0.890625 0.84375 1.59375q0.84375 0.6875 2.4375 0.6875zm4.109375 -7.6015625l-11.45311 0l0 -1.40625l11.45311 0l0 1.40625zm-2.671875 -9.2578125l0.171875 -1.453125q1.28125 0.34375 1.984375 1.28125q0.703125 0.921875 0.703125 2.359375q0 1.828125 -1.125 2.890625q-1.125 1.0625 -3.140625 1.0625q-2.09375 0 -3.25 -1.078125q-1.15625 -1.078125 -1.15625 -2.796875q0 -1.65625 1.140625 -2.703125q1.125 -1.0625 3.171875 -1.0625q0.125 0 0.375 0l0 6.1875q1.375 -0.078125 2.109375 -0.765625q0.71875 -0.703125 0.71875 -1.734375q0 -0.78125 -0.40625 -1.328125q-0.40625 -0.546875 -1.296875 -0.859375zm-2.28125 4.609375l0 -4.625q-1.046875 0.09375 -1.5625 0.53125q-0.8125 0.671875 -0.8125 1.734375q0 0.96875 0.65625 1.640625q0.640625 0.65625 1.71875 0.71875zm3.6875 -10.8984375l1.25 -0.203125q0.125 0.59375 0.125 1.0625q0 0.765625 -0.234375 1.1875q-0.25 0.421875 -0.640625 0.59375q-0.40625 0.171875 -1.671875 0.171875l-4.765625 0l0 1.03125l-1.09375 0l0 -1.03125l-2.0625 0l-0.84373474 -1.40625l2.9062347 0l0 -1.40625l1.09375 0l0 1.40625l4.84375 0q0.609375 0 0.78125 -0.0625q0.171875 -0.078125 0.28125 -0.25q0.09375 -0.171875 0.09375 -0.484375q0 -0.234375 -0.0625 -0.609375zm-8.578125 -1.3828125l-1.6093597 0l0 -1.40625l1.6093597 0l0 1.40625zm9.84375 0l-8.296875 0l0 -1.40625l8.296875 0l0 1.40625zm-4.15625 -3.0234375q-2.296875 0 -3.40625 -1.28125q-0.921875 -1.078125 -0.921875 -2.609375q0 -1.71875 1.125 -2.796875q1.109375 -1.09375 3.09375 -1.09375q1.59375 0 2.515625 0.484375q0.921875 0.484375 1.4375 1.40625q0.5 0.90625 0.5 2.0q0 1.734375 -1.109375 2.8125q-1.125 1.078125 -3.234375 1.078125zm0 -1.453125q1.59375 0 2.390625 -0.6875q0.796875 -0.703125 0.796875 -1.75q0 -1.046875 -0.796875 -1.734375q-0.796875 -0.703125 -2.4375 -0.703125q-1.53125 0 -2.328125 0.703125q-0.796875 0.6875 -0.796875 1.734375q0 1.046875 0.796875 1.75q0.78125 0.6875 2.375 0.6875zm4.15625 -7.9765625l-8.296875 0l0 -1.265625l1.171875 0q-1.359375 -0.90625 -1.359375 -2.640625q0 -0.75 0.265625 -1.375q0.265625 -0.625 0.703125 -0.9375q0.4375 -0.3125 1.046875 -0.4375q0.390625 -0.078125 1.359375 -0.078125l5.109375 0l0 1.40625l-5.046875 0q-0.859375 0 -1.28125 0.171875q-0.4375 0.15625 -0.6875 0.578125q-0.25 0.40625 -0.25 0.96875q0 0.90625 0.578125 1.5625q0.5625 0.640625 2.15625 0.640625l4.53125 0l0 1.40625zm0 -13.328125l-8.296875 0l0 -1.265625l1.25 0q-0.875 -0.484375 -1.15625 -0.890625q-0.28125 -0.40625 -0.28125 -0.90625q0 -0.703125 0.453125 -1.4375l1.296875 0.484375q-0.296875 0.515625 -0.296875 1.03125q0 0.453125 0.28125 0.828125q0.265625 0.359375 0.765625 0.515625q0.75 0.234375 1.640625 0.234375l4.34375 0l0 1.40625zm-2.671875 -11.015625l0.171875 -1.453125q1.28125 0.34375 1.984375 1.28125q0.703125 0.921875 0.703125 2.359375q0 1.828125 -1.125 2.890625q-1.125 1.0625 -3.140625 1.0625q-2.09375 0 -3.25 -1.078125q-1.15625 -1.078125 -1.15625 -2.796875q0 -1.65625 1.140625 -2.703125q1.125 -1.0625 3.171875 -1.0625q0.125 0 0.375 0l0 6.1875q1.375 -0.078125 2.109375 -0.765625q0.71875 -0.703125 0.71875 -1.734375q0 -0.78125 -0.40625 -1.328125q-0.40625 -0.546875 -1.296875 -0.859375zm-2.28125 4.609375l0 -4.625q-1.046875 0.09375 -1.5625 0.53125q-0.8125 0.671875 -0.8125 1.734375q0 0.96875 0.65625 1.640625q0.640625 0.65625 1.71875 0.71875zm5.640625 -7.5703125l0.203125 -1.375q0.640625 -0.078125 0.921875 -0.46875q0.390625 -0.53125 0.390625 -1.4375q0 -0.96875 -0.390625 -1.5q-0.390625 -0.53125 -1.09375 -0.71875q-0.421875 -0.109375 -1.8125 -0.109375q1.09375 0.921875 1.09375 2.296875q0 1.71875 -1.234375 2.65625q-1.234375 0.9375 -2.96875 0.9375q-1.1875 0 -2.1875 -0.421875q-1.0 -0.4375 -1.546875 -1.25q-0.546875 -0.828125 -0.546875 -1.921875q0 -1.46875 1.1875 -2.421875l-1.0 0l0 -1.296875l7.171875 0q1.9375 0 2.75 0.390625q0.8125 0.390625 1.28125 1.25q0.46875 0.859375 0.46875 2.109375q0 1.484375 -0.671875 2.40625q-0.671875 0.90625 -2.015625 0.875zm-4.984375 -1.171875q1.625 0 2.375 -0.640625q0.75 -0.65625 0.75 -1.625q0 -0.96875 -0.734375 -1.625q-0.75 -0.65625 -2.34375 -0.65625q-1.53125 0 -2.296875 0.671875q-0.78125 0.671875 -0.78125 1.625q0 0.9375 0.765625 1.59375q0.765625 0.65625 2.265625 0.65625zm-5.546875 -7.9921875l-1.6093597 0l0 -1.40625l1.6093597 0l0 1.40625zm9.84375 0l-8.296875 0l0 -1.40625l8.296875 0l0 1.40625zm-4.15625 -3.0234375q-2.296875 0 -3.40625 -1.28125q-0.921875 -1.078125 -0.921875 -2.609375q0 -1.71875 1.125 -2.796875q1.109375 -1.09375 3.09375 -1.09375q1.59375 0 2.515625 0.484375q0.921875 0.484375 1.4375 1.40625q0.5 0.90625 0.5 2.0q0 1.734375 -1.109375 2.8125q-1.125 1.078125 -3.234375 1.078125zm0 -1.453125q1.59375 0 2.390625 -0.6875q0.796875 -0.703125 0.796875 -1.75q0 -1.046875 -0.796875 -1.734375q-0.796875 -0.703125 -2.4375 -0.703125q-1.53125 0 -2.328125 0.703125q-0.796875 0.6875 -0.796875 1.734375q0 1.046875 0.796875 1.75q0.78125 0.6875 2.375 0.6875zm4.15625 -7.9765625l-8.296875 0l0 -1.265625l1.171875 0q-1.359375 -0.90625 -1.359375 -2.640625q0 -0.75 0.265625 -1.375q0.265625 -0.625 0.703125 -0.9375q0.4375 -0.3125 1.046875 -0.4375q0.390625 -0.078125 1.359375 -0.078125l5.109375 0l0 1.40625l-5.046875 0q-0.859375 0 -1.28125 0.171875q-0.4375 0.15625 -0.6875 0.578125q-0.25 0.40625 -0.25 0.96875q0 0.90625 0.578125 1.5625q0.5625 0.640625 2.15625 0.640625l4.53125 0l0 1.40625z" fill-rule="nonzero"></path></g></svg>

