<?xml version="1.0" standalone="yes"?>

<svg version="1.1" viewBox="0.0 0.0 628.9317585301837 369.96062992125985" fill="none" stroke="none" stroke-linecap="square" stroke-miterlimit="10" xmlns="http://www.w3.org/2000/svg" xmlns:xlink="http://www.w3.org/1999/xlink"><clipPath id="p.0"><path d="m0 0l628.93176 0l0 369.96063l-628.93176 0l0 -369.96063z" clip-rule="nonzero"></path></clipPath><g clip-path="url(#p.0)"><path fill="#000000" fill-opacity="0.0" d="m0 0l628.93176 0l0 369.96063l-628.93176 0z" fill-rule="evenodd"></path><path fill="#ffffff" d="m246.70866 316.2021l133.22835 0l0 34.960632l-133.22835 0z" fill-rule="evenodd"></path><path stroke="#000000" stroke-width="3.0" stroke-linejoin="round" stroke-linecap="butt" d="m246.70866 316.2021l133.22835 0l0 34.960632l-133.22835 0z" fill-rule="evenodd"></path><path fill="#ffffff" d="m109.79002 128.06824l0 133.22836l-34.960625 0l0 -133.22836z" fill-rule="evenodd"></path><path stroke="#000000" stroke-width="3.0" stroke-linejoin="round" stroke-linecap="butt" d="m109.79002 128.06824l0 133.22836l-34.960625 0l0 -133.22836z" fill-rule="evenodd"></path><path fill="#ffffff" d="m551.8163 128.06824l0 133.22836l-34.960632 0l0 -133.22836z" fill-rule="evenodd"></path><path stroke="#000000" stroke-width="3.0" stroke-linejoin="round" stroke-linecap="butt" d="m551.8163 128.06824l0 133.22836l-34.960632 0l0 -133.22836z" fill-rule="evenodd"></path><path fill="#000000" d="m299.1496 7.1233597l3.779541 0l0 120.94488l-3.779541 0z" fill-rule="evenodd"></path><path stroke="#000000" stroke-width="1.0" stroke-linejoin="round" stroke-linecap="butt" d="m299.1496 7.1233597l3.779541 0l0 120.94488l-3.779541 0z" fill-rule="evenodd"></path><path fill="#000000" d="m312.37796 46.8084l15.118103 0l0 41.574802l-15.118103 0z" fill-rule="evenodd"></path><path stroke="#000000" stroke-width="1.0" stroke-linejoin="round" stroke-linecap="butt" d="m312.37796 46.8084l15.118103 0l0 41.574802l-15.118103 0z" fill-rule="evenodd"></path><path fill="#000000" d="m344.50394 7.1233597l3.779541 0l0 120.94488l-3.779541 0z" fill-rule="evenodd"></path><path stroke="#000000" stroke-width="1.0" stroke-linejoin="round" stroke-linecap="butt" d="m344.50394 7.1233597l3.779541 0l0 120.94488l-3.779541 0z" fill-rule="evenodd"></path><path fill="#000000" d="m357.73227 46.8084l15.118134 0l0 41.574802l-15.118134 0z" fill-rule="evenodd"></path><path stroke="#000000" stroke-width="1.0" stroke-linejoin="round" stroke-linecap="butt" d="m357.73227 46.8084l15.118134 0l0 41.574802l-15.118134 0z" fill-rule="evenodd"></path><path fill="#000000" fill-opacity="0.0" d="m299.1496 67.5958l-208.0 0" fill-rule="evenodd"></path><path stroke="#000000" stroke-width="3.0" stroke-linejoin="round" stroke-linecap="butt" d="m299.1496 67.5958l-208.0 0" fill-rule="evenodd"></path><path fill="#000000" fill-opacity="0.0" d="m92.30971 128.06824l0 -61.732277" fill-rule="evenodd"></path><path stroke="#000000" stroke-width="3.0" stroke-linejoin="round" stroke-linecap="butt" d="m92.30971 128.06824l0 -61.732277" fill-rule="evenodd"></path><path fill="#000000" fill-opacity="0.0" d="m92.30971 261.2966l0 73.98425" fill-rule="evenodd"></path><path stroke="#000000" stroke-width="3.0" stroke-linejoin="round" stroke-linecap="butt" d="m92.30971 261.2966l0 73.98425" fill-rule="evenodd"></path><path fill="#000000" fill-opacity="0.0" d="m246.70866 333.6824l-155.74803 0" fill-rule="evenodd"></path><path stroke="#000000" stroke-width="3.0" stroke-linejoin="round" stroke-linecap="butt" d="m246.70866 333.6824l-155.74803 0" fill-rule="evenodd"></path><path fill="#000000" fill-opacity="0.0" d="m379.937 333.6824l156.0315 0" fill-rule="evenodd"></path><path stroke="#000000" stroke-width="3.0" stroke-linejoin="round" stroke-linecap="butt" d="m379.937 333.6824l156.0315 0" fill-rule="evenodd"></path><path fill="#000000" fill-opacity="0.0" d="m534.33594 261.2966l0 74.17322" fill-rule="evenodd"></path><path stroke="#000000" stroke-width="3.0" stroke-linejoin="round" stroke-linecap="butt" d="m534.33594 261.2966l0 74.17322" fill-rule="evenodd"></path><path fill="#000000" fill-opacity="0.0" d="m534.33594 128.06824l0 -61.732277" fill-rule="evenodd"></path><path stroke="#000000" stroke-width="3.0" stroke-linejoin="round" stroke-linecap="butt" d="m534.33594 128.06824l0 -61.732277" fill-rule="evenodd"></path><path fill="#000000" fill-opacity="0.0" d="m372.8504 67.5958l163.1181 0" fill-rule="evenodd"></path><path stroke="#000000" stroke-width="3.0" stroke-linejoin="round" stroke-linecap="butt" d="m372.8504 67.5958l163.1181 0" fill-rule="evenodd"></path><path fill="#000000" fill-opacity="0.0" d="m277.6378 267.42258l66.86615 0l0 61.73227l-66.86615 0z" fill-rule="evenodd"></path><path fill="#000000" d="m293.09235 302.3287l2.21875 -0.1875q0.234375 1.609375 1.125 2.4375q0.90625 0.8125 2.171875 0.8125q1.53125 0 2.578125 -1.140625q1.0625 -1.15625 1.0625 -3.0625q0 -1.796875 -1.015625 -2.84375q-1.015625 -1.046875 -2.65625 -1.046875q-1.015625 0 -1.84375 0.46875q-0.8125 0.453125 -1.28125 1.203125l-1.984375 -0.265625l1.65625 -8.828125l8.546875 0l0 2.015625l-6.859375 0l-0.921875 4.625q1.546875 -1.078125 3.25 -1.078125q2.25 0 3.796875 1.5625q1.546875 1.546875 1.546875 4.0q0 2.328125 -1.359375 4.03125q-1.65625 2.09375 -4.515625 2.09375q-2.34375 0 -3.828125 -1.3125q-1.484375 -1.3125 -1.6875 -3.484375zm20.15625 2.46875l3.75 0q-3.5625 -2.96875 -3.5625 -7.265625q0 -2.328125 0.9375 -4.171875q0.9375 -1.859375 2.640625 -2.921875q1.71875 -1.078125 4.125 -1.078125q2.375 0 3.953125 0.984375q1.59375 0.984375 2.609375 2.828125q1.03125 1.828125 1.03125 4.359375q0 4.296875 -3.5625 7.265625l3.75 0l0 2.03125l-6.671875 0l0 -1.90625q4.171875 -1.9375 4.171875 -7.03125q0 -2.875 -1.46875 -4.734375q-1.46875 -1.859375 -3.828125 -1.859375q-2.421875 0 -3.875 1.875q-1.453125 1.859375 -1.453125 4.59375q0 5.171875 4.140625 7.15625l0 1.90625l-6.6875 0l0 -2.03125z" fill-rule="nonzero"></path><path fill="#000000" fill-opacity="0.0" d="m551.81525 163.81616l72.75592 0l0 61.732285l-72.75592 0z" fill-rule="evenodd"></path><path fill="#000000" d="m571.47833 203.2223l-2.109375 0l0 -13.4375q-0.75 0.71875 -2.0 1.453125q-1.234375 0.71875 -2.21875 1.078125l0 -2.03125q1.78125 -0.828125 3.09375 -2.015625q1.328125 -1.1875 1.875 -2.296875l1.359375 0l0 17.25zm16.488281 -2.03125l0 2.03125l-11.34375 0q-0.03125 -0.765625 0.234375 -1.46875q0.4375 -1.15625 1.390625 -2.28125q0.953125 -1.125 2.765625 -2.609375q2.796875 -2.296875 3.78125 -3.625q0.984375 -1.34375 0.984375 -2.546875q0 -1.25 -0.90625 -2.109375q-0.890625 -0.859375 -2.328125 -0.859375q-1.515625 0 -2.4375 0.921875q-0.90625 0.90625 -0.921875 2.515625l-2.171875 -0.21875q0.21875 -2.421875 1.671875 -3.6875q1.453125 -1.28125 3.90625 -1.28125q2.46875 0 3.90625 1.375q1.453125 1.359375 1.453125 3.390625q0 1.03125 -0.421875 2.03125q-0.421875 1.0 -1.40625 2.109375q-0.96875 1.09375 -3.25 3.015625q-1.890625 1.59375 -2.4375 2.15625q-0.53125 0.5625 -0.890625 1.140625l8.421875 0zm9.078125 0l3.75 0q-3.5625 -2.96875 -3.5625 -7.265625q0 -2.328125 0.9375 -4.171875q0.9375 -1.859375 2.640625 -2.921875q1.71875 -1.078125 4.125 -1.078125q2.375 0 3.953125 0.984375q1.59375 0.984375 2.609375 2.828125q1.03125 1.828125 1.03125 4.359375q0 4.296875 -3.5625 7.265625l3.75 0l0 2.03125l-6.671875 0l0 -1.90625q4.171875 -1.9375 4.171875 -7.03125q0 -2.875 -1.46875 -4.734375q-1.46875 -1.859375 -3.828125 -1.859375q-2.421875 0 -3.875 1.875q-1.453125 1.859375 -1.453125 4.59375q0 5.171875 4.140625 7.15625l0 1.90625l-6.6875 0l0 -2.03125z" fill-rule="nonzero"></path><path fill="#000000" fill-opacity="0.0" d="m2.0734909 163.81508l72.755905 0l0 61.732285l-72.755905 0z" fill-rule="evenodd"></path><path fill="#000000" d="m21.736599 203.22122l-2.109375 0l0 -13.4375q-0.75 0.71875 -2.0 1.453125q-1.234375 0.71875 -2.218749 1.078125l0 -2.03125q1.781249 -0.828125 3.093749 -2.015625q1.328125 -1.1875 1.875 -2.296875l1.359375 0l0 17.25zm5.4101562 -8.46875q0 -3.046875 0.625 -4.90625q0.625 -1.859375 1.859375 -2.859375q1.234375 -1.015625 3.109375 -1.015625q1.390625 0 2.421875 0.5625q1.046875 0.546875 1.71875 1.59375q0.6875 1.046875 1.078125 2.5625q0.390625 1.5 0.390625 4.0625q0 3.015625 -0.625 4.875q-0.625 1.859375 -1.859375 2.875q-1.234375 1.015625 -3.125 1.015625q-2.484375 0 -3.890625 -1.78125q-1.703125 -2.15625 -1.703125 -6.984375zm2.171875 0q0 4.21875 0.984375 5.625q0.984375 1.40625 2.4375 1.40625q1.453125 0 2.4375 -1.40625q1.0 -1.40625 1.0 -5.625q0 -4.25 -1.0 -5.640625q-0.984375 -1.390625 -2.453125 -1.390625q-1.453125 0 -2.328125 1.21875q-1.078125 1.578125 -1.078125 5.8125zm17.984375 6.4375l3.75 0q-3.5625 -2.96875 -3.5625 -7.265625q0 -2.328125 0.9375 -4.171875q0.9375 -1.859375 2.640625 -2.921875q1.71875 -1.078125 4.125 -1.078125q2.375 0 3.953125 0.984375q1.59375 0.984375 2.609375 2.828125q1.03125 1.828125 1.03125 4.359375q0 4.296875 -3.5625 7.265625l3.75 0l0 2.03125l-6.671875 0l0 -1.90625q4.171875 -1.9375 4.171875 -7.03125q0 -2.875 -1.46875 -4.734375q-1.46875 -1.859375 -3.828125 -1.859375q-2.421875 0 -3.875 1.875q-1.453125 1.859375 -1.453125 4.59375q0 5.171875 4.140625 7.15625l0 1.90625l-6.6875 0l0 -2.03125z" fill-rule="nonzero"></path></g></svg>

