<svg version="1.1" viewBox="0.0 0.0 960.6194225721785 376.6115485564304" fill="none" stroke="none" stroke-linecap="square" stroke-miterlimit="10" xmlns:xlink="http://www.w3.org/1999/xlink" xmlns="http://www.w3.org/2000/svg"><clipPath id="p.0"><path d="m0 0l960.61945 0l0 376.61154l-960.61945 0l0 -376.61154z" clip-rule="nonzero"/></clipPath><g clip-path="url(#p.0)"><path fill="#000000" fill-opacity="0.0" d="m0 0l960.61945 0l0 376.61154l-960.61945 0z" fill-rule="evenodd"/><path fill="#000000" fill-opacity="0.0" d="m493.7552 87.898994l0 155.46457" fill-rule="evenodd"/><path stroke="#000000" stroke-width="4.0" stroke-linejoin="round" stroke-linecap="butt" d="m493.75516 87.898994l0 131.46457" fill-rule="evenodd"/><path fill="#000000" stroke="#000000" stroke-width="4.0" stroke-linecap="butt" d="m487.14822 219.36356l6.6069336 18.15239l6.6069336 -18.15239z" fill-rule="evenodd"/><path fill="#000000" fill-opacity="0.0" d="m60.109512 85.111595l0 161.03937" fill-rule="evenodd"/><path stroke="#000000" stroke-width="4.0" stroke-linejoin="round" stroke-linecap="butt" d="m60.10951 85.111595l0 137.03937" fill-rule="evenodd"/><path fill="#000000" stroke="#000000" stroke-width="4.0" stroke-linecap="butt" d="m53.50258 222.15096l6.60693 18.15239l6.60693 -18.15239z" fill-rule="evenodd"/><path fill="#000000" fill-opacity="0.0" d="m60.108627 88.137726l788.1575 0" fill-rule="evenodd"/><path stroke="#000000" stroke-width="2.0" stroke-linejoin="round" stroke-linecap="butt" stroke-dasharray="8.0,6.0" d="m60.108627 88.137726l788.1575 0" fill-rule="evenodd"/><path fill="#0000ff" d="m60.108627 84.05899l867.30707 0.25196838l0 8.157478l-867.30707 -0.25196838z" fill-rule="evenodd"/><path stroke="#000000" stroke-width="1.0" stroke-linejoin="round" stroke-linecap="butt" d="m60.108627 84.05899l867.30707 0.25196838l0 8.157478l-867.30707 -0.25196838z" fill-rule="evenodd"/><path fill="#000000" fill-opacity="0.0" d="m215.7406 14.892871l74.99213 0l0 77.57481l-74.99213 0z" fill-rule="evenodd"/><path fill="#000000" d="m238.13123 69.97287l0 -14.5625l-13.25 -19.796875l5.53125 0l6.78125 10.359375q1.875 2.90625 3.484375 5.8125q1.546875 -2.703125 3.75 -6.078125l6.65625 -10.09375l5.296875 0l-13.703125 19.796875l0 14.5625l-4.546875 0z" fill-rule="nonzero"/><path fill="#000000" fill-opacity="0.0" d="m32.857544 14.893745l74.99213 0l0 77.57481l-74.99213 0z" fill-rule="evenodd"/><path fill="#000000" d="m42.076294 69.97374l13.28125 -17.906246l-11.71875 -16.453125l5.421875 0l6.234375 8.8125q1.9375 2.734375 2.765625 4.21875q1.140625 -1.875 2.71875 -3.921875l6.90625 -9.109375l4.953125 0l-12.078125 16.1875l13.015625 18.171871l-5.625 0l-8.65625 -12.265621q-0.71875 -1.046875 -1.5 -2.296875q-1.140625 1.875 -1.640625 2.578125l-8.625 11.984371l-5.453125 0z" fill-rule="nonzero"/><path fill="#000000" fill-opacity="0.0" d="m444.73682 233.80975l155.02362 0l0 77.5748l-155.02362 0z" fill-rule="evenodd"/><path fill="#000000" d="m455.75244 279.8116l4.21875 -0.5625q0.734375 3.59375 2.46875 5.171875q1.75 1.578125 4.265625 1.578125q2.96875 0 5.015625 -2.0625q2.0625 -2.0625 2.0625 -5.109375q0 -2.90625 -1.90625 -4.78125q-1.890625 -1.890625 -4.828125 -1.890625q-1.1875 0 -2.96875 0.46875l0.46875 -3.703125q0.421875 0.046875 0.671875 0.046875q2.703125 0 4.859375 -1.40625q2.15625 -1.40625 2.15625 -4.34375q0 -2.3125 -1.578125 -3.828125q-1.5625 -1.53125 -4.046875 -1.53125q-2.46875 0 -4.109375 1.546875q-1.640625 1.546875 -2.109375 4.640625l-4.21875 -0.75q0.78125 -4.25 3.515625 -6.578125q2.75 -2.3281097 6.828125 -2.3281097q2.8125 0 5.171875 1.203125q2.375 1.2031097 3.625 3.2968597q1.25 2.078125 1.25 4.421875q0 2.234375 -1.203125 4.0625q-1.1875 1.828125 -3.53125 2.90625q3.046875 0.703125 4.734375 2.921875q1.6875 2.203125 1.6875 5.53125q0 4.5 -3.28125 7.640625q-3.28125 3.125 -8.296875 3.125q-4.515625 0 -7.515625 -2.6875q-2.984375 -2.703125 -3.40625 -7.0zm42.570312 9.078125l-4.21875 0l0 -26.890625q-1.53125 1.453125 -4.0 2.90625q-2.46875 1.453125 -4.4375 2.1875l0 -4.078125q3.53125 -1.671875 6.171875 -4.03125q2.65625 -2.375 3.765625 -4.5937347l2.71875 0l0 34.499985zm25.796875 0l0 -34.35936l4.671875 0l18.046875 26.968735l0 -26.968735l4.359375 0l0 34.35936l-4.671875 0l-18.046875 -27.0l0 27.0l-4.359375 0z" fill-rule="nonzero"/><path fill="#000000" fill-opacity="0.0" d="m32.858707 252.08185l74.99213 0l0 77.5748l-74.99213 0z" fill-rule="evenodd"/><path fill="#000000" d="m45.233707 296.05246l4.5 -0.421875l-0.046875 1.1875q0 2.0 0.90625 3.65625q0.921875 1.640625 3.03125 2.546875q2.109375 0.90625 5.015625 0.90625q4.125 0 6.296879 -1.796875q2.171875 -1.8125 2.171875 -4.140625q0 -1.609375 -1.15625 -2.953125q-1.171875 -1.3125 -6.390629 -3.5625q-4.0625 -1.75 -5.53125 -2.6875q-2.328125 -1.53125 -3.4375 -3.3125q-1.09375 -1.796875 -1.09375 -4.09375q0 -2.65625 1.453125 -4.78125q1.453125 -2.140625 4.25 -3.265625q2.8125 -1.125 6.328125 -1.125q4.187504 0 7.062504 1.40625q2.890625 1.40625 4.1875 3.75q1.3125 2.34375 1.3125 4.484375q0 0.203125 -0.03125 0.703125l-4.421875 0.34375q0 -1.453125 -0.265625 -2.265625q-0.46875 -1.4375 -1.453125 -2.421875q-0.984375 -0.984375 -2.703125 -1.578125q-1.7187538 -0.59375 -3.8593788 -0.59375q-3.75 0 -5.828125 1.6875q-1.59375 1.28125 -1.59375 3.421875q0 1.265625 0.65625 2.265625q0.65625 0.984375 2.359375 1.953125q1.21875 0.671875 5.796875 2.6875q3.7031288 1.640625 5.109379 2.578125q1.875 1.25 2.875 3.015625q1.015625 1.765625 1.015625 4.015625q0 2.796875 -1.703125 5.15625q-1.703125 2.34375 -4.703125 3.640625q-3.0000038 1.296875 -6.859379 1.296875q-5.84375 0 -9.53125 -2.546875q-3.6875 -2.546875 -3.71875 -9.15625z" fill-rule="nonzero"/></g></svg>